<svg width="120" height="120" viewBox="0 0 120 120" fill="none" xmlns="http://www.w3.org/2000/svg">
<path fill-rule="evenodd" clip-rule="evenodd" d="M91.4062 0C108.75 0 120 11.25 120 28.5938V91.4062C120 108.75 108.75 120 91.4062 120H28.5938C11.25 120 0 108.75 0 91.4062V28.5938C0 11.25 11.25 0 28.5938 0H91.4062Z" fill="#1B1D29"/>
<path fill-rule="evenodd" clip-rule="evenodd" d="M77.3683 23.0006C77.3683 23.0006 90.5725 22.7321 96.3355 33.865C96.3355 33.865 100.963 41.7754 96.3355 51.9264C96.3355 51.9264 94.0788 55.8304 89.6742 58.4066C89.6742 58.4066 100.085 62.9462 99.9686 75.5877C99.9686 75.5877 100.557 95.8267 79.1879 95.9461C57.8188 96.0664 39 95.9461 39 95.9461V23.0006H77.3683Z" fill="#1B1D29" stroke="#FCA311" stroke-width="2"/>
<path fill-rule="evenodd" clip-rule="evenodd" d="M69.3683 23.0006C69.3683 23.0006 82.5725 22.7321 88.3355 33.865C88.3355 33.865 92.9631 41.7754 88.3355 51.9264C88.3355 51.9264 86.0788 55.8304 81.6742 58.4066C81.6742 58.4066 92.0852 62.9462 91.9686 75.5877C91.9686 75.5877 92.5569 95.8267 71.1879 95.9461C49.8188 96.0664 31 95.9461 31 95.9461V23.0006H69.3683Z" fill="#1B1D29" stroke="#FCA311" stroke-width="2"/>
<path fill-rule="evenodd" clip-rule="evenodd" d="M61.3683 23.0006C61.3683 23.0006 74.5725 22.7321 80.3355 33.865C80.3355 33.865 84.9631 41.7754 80.3355 51.9264C80.3355 51.9264 78.0788 55.8304 73.6742 58.4066C73.6742 58.4066 84.0852 62.9462 83.9686 75.5877C83.9686 75.5877 84.5569 95.8267 63.1879 95.9461C41.8188 96.0664 23 95.9461 23 95.9461V23.0006H61.3683Z" fill="#1B1D29" stroke="#FCA311" stroke-width="2"/>
</svg>
